<svg width="180" height="26" viewBox="0 0 180 26" fill="none" xmlns="http://www.w3.org/2000/svg">
<path d="M167.792 0.119873L157.713 19.4808H158.866L168.946 0.119873H167.792Z" fill="#C4161C"/>
<path d="M6.84634 11.0906L6.58627 11.007C5.11175 10.5343 3.83626 10.1272 3.83626 9.26333V9.21131C3.83626 8.48084 4.55768 7.98783 5.62964 7.98783C6.70839 7.98783 8.09922 8.45596 9.44257 9.27237C9.47423 9.29047 9.51268 9.29499 9.5466 9.2882C9.58278 9.27916 9.61218 9.25654 9.62801 9.22262L10.8786 6.98145C10.9126 6.92039 10.8945 6.8435 10.8357 6.80505C9.33175 5.81224 7.41172 5.21973 5.70653 5.21973C2.74394 5.21973 0.674647 7.01085 0.674647 9.57542V9.62517C0.674647 12.3006 2.94522 13.1667 5.07105 13.7683L5.39444 13.8655C6.8192 14.2975 8.05173 14.6706 8.05173 15.5662V15.6182C8.05173 16.464 7.30317 16.9706 6.04802 16.9706C4.64362 16.9706 3.0696 16.3781 1.6177 15.3039C1.5883 15.2812 1.55212 15.2722 1.51593 15.279C1.47975 15.2858 1.44809 15.3061 1.42773 15.3378L0.0210681 17.4749C-0.0151162 17.5337 -0.00380884 17.6083 0.0482062 17.6536C1.70138 18.9811 3.85887 19.741 5.96887 19.741C9.20059 19.741 11.2088 18.0312 11.2088 15.2812V15.2292C11.2111 12.789 9.11465 11.7985 6.84634 11.0906Z" fill="#C4161C"/>
<path d="M20.2727 5.16992C18.5766 5.16992 17.2106 5.86647 16.1048 7.29349V5.5883C16.1048 5.51593 16.046 5.45487 15.9713 5.45487H12.7916C12.7193 5.45487 12.6582 5.51367 12.6582 5.5883V19.3474C12.6582 19.4198 12.717 19.4808 12.7916 19.4808H15.9691C16.0437 19.4808 16.1025 19.422 16.1025 19.3474V11.5813C16.1025 9.5912 17.2672 8.30213 19.0719 8.30213C20.8585 8.30213 21.883 9.47812 21.883 11.5293V19.3474C21.883 19.4198 21.9418 19.4808 22.0164 19.4808H25.1689C25.2436 19.4808 25.3024 19.422 25.3024 19.3474V10.5659C25.3024 7.23695 23.3756 5.16992 20.2727 5.16992Z" fill="#C4161C"/>
<path d="M74.0787 0.404825C73.4297 0.212596 72.663 0.0339355 71.4621 0.0339355C70.0917 0.0339355 69.0536 0.404825 68.2915 1.16696C67.5226 1.93588 67.1336 3.10961 67.1336 4.6497V5.53396H64.4288C64.3564 5.53396 64.2954 5.59276 64.2954 5.66512L64.2705 8.29528C64.2705 8.33146 64.2841 8.36538 64.309 8.39026C64.3338 8.41514 64.3678 8.43097 64.4039 8.43097H67.1336V19.3473C67.1336 19.4197 67.1924 19.4808 67.267 19.4808H70.4196C70.492 19.4808 70.553 19.422 70.553 19.3473V8.43323H74.0154C74.0878 8.43323 74.1488 8.37443 74.1488 8.2998V5.69452C74.1488 5.62216 74.09 5.56109 74.0154 5.56109H70.501V4.93918C70.501 3.62523 71.0528 2.98748 72.1904 2.98748C72.862 2.98748 73.4003 3.12091 73.9996 3.31993C74.038 3.3335 74.0855 3.32445 74.1194 3.30183C74.1534 3.27696 74.1737 3.23625 74.1737 3.19328V0.53147C74.1737 0.474932 74.1353 0.422917 74.0787 0.404825Z" fill="#6F7074"/>
<path d="M79.0885 5.45703H75.9088C75.8365 5.45703 75.7754 5.51583 75.7754 5.59046V19.3496C75.7754 19.4242 75.8342 19.483 75.9088 19.483H79.0885C79.1609 19.483 79.2219 19.4242 79.2219 19.3496V5.59046C79.2197 5.51583 79.1609 5.45703 79.0885 5.45703Z" fill="#6F7074"/>
<path d="M89.5797 5.45705H86.011V1.80921C86.011 1.73684 85.9522 1.67578 85.8776 1.67578H82.725C82.6527 1.67578 82.5916 1.73458 82.5916 1.80921V5.45478H80.9791C80.9068 5.45478 80.8457 5.51358 80.8457 5.58821V8.29752C80.8457 8.36989 80.9045 8.43095 80.9791 8.43095H82.5916V15.5412C82.5916 18.3115 83.9689 19.7137 86.6849 19.7137C87.8157 19.7137 88.7135 19.4898 89.591 18.9923C89.634 18.9674 89.6589 18.9244 89.6589 18.8769V16.2988C89.6589 16.2536 89.634 16.2106 89.5955 16.1857C89.5571 16.1608 89.5073 16.1586 89.4666 16.1789C88.8492 16.491 88.2454 16.6357 87.5715 16.6357C86.5063 16.6357 86.011 16.1314 86.011 15.0504V8.43321H89.5797C89.6521 8.43321 89.7131 8.37441 89.7131 8.29978V5.59048C89.7131 5.51585 89.6521 5.45705 89.5797 5.45705Z" fill="#6F7074"/>
<path d="M98.9492 5.16992C97.2531 5.16992 95.8871 5.86421 94.7835 7.29349V5.5883C94.7835 5.51593 94.7247 5.45487 94.65 5.45487H91.4703C91.398 5.45487 91.3369 5.51367 91.3369 5.5883V19.3474C91.3369 19.4198 91.3957 19.4808 91.4703 19.4808H94.65C94.7247 19.4808 94.7835 19.422 94.7835 19.3474V11.5813C94.7835 9.5912 95.9482 8.30213 97.7506 8.30213C99.5372 8.30213 100.562 9.47812 100.562 11.5293V19.3474C100.562 19.4198 100.62 19.4808 100.695 19.4808H103.85C103.922 19.4808 103.983 19.422 103.983 19.3474V10.5659C103.981 7.23695 102.054 5.16992 98.9492 5.16992Z" fill="#6F7074"/>
<path d="M112.286 5.16992C108.375 5.16992 105.429 8.30665 105.429 12.4679V12.5199C105.429 16.7353 108.455 19.7929 112.627 19.7929C114.975 19.7929 116.904 18.9087 118.358 17.165C118.403 17.1108 118.396 17.0271 118.344 16.9819L116.494 15.34C116.442 15.2925 116.363 15.2948 116.313 15.3445C115.165 16.4685 114.079 16.9479 112.681 16.9479C110.684 16.9479 109.239 15.7154 108.88 13.7207H118.833C118.903 13.7207 118.959 13.6687 118.966 13.5986L118.971 13.5262C118.993 13.2413 119.016 12.9722 119.016 12.7031C119.014 8.95345 116.933 5.16992 112.286 5.16992ZM108.844 11.3733C109.172 9.3266 110.501 8.01492 112.261 8.01492C114.409 8.01492 115.388 9.72237 115.603 11.3733H108.844Z" fill="#6F7074"/>
<path d="M126.816 11.0906L126.56 11.0092C125.083 10.5366 123.808 10.1295 123.808 9.26333V9.21131C123.808 8.48084 124.529 7.98783 125.603 7.98783C126.682 7.98783 128.071 8.45596 129.416 9.27237C129.448 9.29047 129.486 9.29725 129.52 9.28594C129.557 9.2769 129.586 9.25428 129.602 9.22262L130.85 6.98145C130.884 6.92039 130.866 6.8435 130.807 6.80505C129.306 5.81224 127.388 5.21973 125.68 5.21973C122.718 5.21973 120.648 7.01085 120.648 9.57542V9.62517C120.648 12.3006 122.917 13.1667 125.04 13.7683L125.359 13.8655C126.788 14.2975 128.021 14.6706 128.021 15.5685V15.6205C128.021 16.4663 127.272 16.9729 126.017 16.9729C124.611 16.9729 123.039 16.3803 121.589 15.3061C121.56 15.2835 121.524 15.2745 121.487 15.2812C121.451 15.288 121.42 15.3084 121.399 15.34L119.993 17.4772C119.956 17.536 119.968 17.6106 120.022 17.6558C121.673 18.9833 123.83 19.7432 125.943 19.7432C129.174 19.7432 131.183 18.0335 131.183 15.2835V15.2315C131.183 12.7913 129.084 11.7985 126.816 11.0906Z" fill="#6F7074"/>
<path d="M138.678 11.0906L138.42 11.0092C136.943 10.5366 135.668 10.1295 135.668 9.26333V9.21131C135.668 8.48084 136.389 7.98783 137.464 7.98783C138.542 7.98783 139.931 8.45596 141.277 9.27237C141.308 9.29047 141.347 9.29725 141.381 9.28594C141.417 9.2769 141.446 9.25428 141.462 9.22262L142.713 6.98145C142.747 6.92039 142.728 6.8435 142.67 6.80505C141.168 5.81224 139.25 5.21973 137.543 5.21973C134.58 5.21973 132.511 7.01085 132.511 9.57542V9.62517C132.511 12.3006 134.779 13.1667 136.903 13.7683L137.222 13.8655C138.651 14.2975 139.883 14.6706 139.883 15.5685V15.6205C139.883 16.4663 139.135 16.9729 137.88 16.9729C136.473 16.9729 134.901 16.3803 133.452 15.3061C133.422 15.2835 133.386 15.2745 133.35 15.2812C133.314 15.288 133.282 15.3084 133.262 15.34L131.855 17.4772C131.817 17.5337 131.83 17.6106 131.882 17.6558C133.533 18.9833 135.691 19.7432 137.803 19.7432C141.035 19.7432 143.043 18.0335 143.043 15.2835V15.2315C143.045 12.7913 140.946 11.7985 138.678 11.0906Z" fill="#6F7074"/>
<path d="M77.4981 0.669434C76.4306 0.669434 75.5645 1.5356 75.5645 2.60303C75.5645 3.67047 76.4306 4.53664 77.4981 4.53664C78.5655 4.53664 79.4317 3.66821 79.4317 2.60303C79.4317 1.53786 78.5632 0.669434 77.4981 0.669434Z" fill="#6F7074"/>
<path d="M41.7235 5.44576H38.5551C38.4805 5.44576 38.4217 5.50456 38.4217 5.57919V6.54486C37.144 5.61764 35.6672 5.12915 34.1316 5.12915C30.0609 5.12915 26.75 8.44002 26.75 12.5108C26.75 16.5815 30.0609 19.8924 34.1316 19.8924C35.6672 19.8924 37.144 19.4039 38.4217 18.4767V19.3496C38.4217 19.422 38.4805 19.483 38.5551 19.483H41.7235C41.7959 19.483 41.857 19.4242 41.857 19.3496V5.57693C41.8547 5.50456 41.7959 5.44576 41.7235 5.44576ZM34.1293 16.7986C31.7638 16.7986 29.837 14.874 29.837 12.5085C29.837 10.1429 31.7615 8.21839 34.1293 8.21839C36.4949 8.21839 38.4195 10.1429 38.4195 12.5085C38.4195 14.874 36.4949 16.7986 34.1293 16.7986Z" fill="#C4161C"/>
<path d="M51.4324 5.12695C49.8968 5.12695 48.42 5.61544 47.1423 6.54267V5.577C47.1423 5.50463 47.0835 5.44357 47.0089 5.44357H43.8405C43.7681 5.44357 43.707 5.50237 43.707 5.577V25.5349C43.707 25.6073 43.7658 25.6684 43.8405 25.6684H47.0089C47.0812 25.6684 47.1423 25.6096 47.1423 25.5349V18.4767C48.42 19.4039 49.8968 19.8924 51.4324 19.8924C55.5031 19.8924 58.814 16.5816 58.814 12.5108C58.814 8.43782 55.5031 5.12695 51.4324 5.12695ZM51.4324 16.7964C49.0668 16.7964 47.1423 14.8719 47.1423 12.5086C47.1423 10.143 49.0668 8.21845 51.4324 8.21845C53.7979 8.21845 55.7248 10.143 55.7248 12.5086C55.7248 14.8741 53.7979 16.7964 51.4324 16.7964Z" fill="#C4161C"/>
<path d="M154.404 7.74119H150.34L152.023 6.33678C153.633 5.0251 154.393 4.2494 154.393 2.79072V2.76584C154.393 1.11267 153.167 0 151.344 0C149.673 0 148.812 0.730472 147.963 1.91099C147.939 1.94491 147.945 1.9924 147.979 2.01954L149.11 2.90606C149.126 2.91736 149.148 2.92641 149.169 2.92189C149.191 2.91962 149.21 2.90832 149.223 2.89022C149.951 1.92908 150.494 1.57176 151.231 1.57176C152.055 1.57176 152.606 2.10322 152.606 2.89475C152.606 3.69985 152.095 4.27654 150.949 5.26482L147.85 7.90176C147.832 7.91533 147.823 7.93794 147.823 7.96056V9.20892C147.823 9.25189 147.859 9.28807 147.902 9.28807H154.409C154.452 9.28807 154.488 9.25415 154.488 9.20892V7.82034C154.483 7.77511 154.45 7.74119 154.404 7.74119Z" fill="#6F7074"/>
<path d="M162.317 5.81202H161.109V0.142386C161.109 0.0994173 161.075 0.0632324 161.03 0.0632324H159.68C159.657 0.0632324 159.634 0.0745407 159.619 0.0903713L154.616 6.00425C154.6 6.02461 154.593 6.04948 154.6 6.07436L154.897 7.20512C154.906 7.2413 154.937 7.26392 154.973 7.26392H159.435V9.2043C159.435 9.24727 159.469 9.28346 159.515 9.28346H161.032C161.075 9.28346 161.111 9.24727 161.111 9.2043V7.26392H162.319C162.362 7.26392 162.398 7.22773 162.398 7.18476V5.88665C162.396 5.84594 162.362 5.81202 162.317 5.81202ZM159.435 5.81202H156.726L159.435 2.54865V5.81202Z" fill="#6F7074"/>
<path d="M176.395 0.126709H170.067C170.024 0.126709 169.988 0.162893 169.988 0.205862V1.5967C169.988 1.63967 170.024 1.67585 170.067 1.67585H174.464L170.488 9.1728C170.475 9.19767 170.475 9.22707 170.49 9.24969C170.504 9.2723 170.531 9.28813 170.558 9.28813H172.345C172.374 9.28813 172.401 9.2723 172.415 9.24517L176.465 1.43839C176.47 1.42708 176.474 1.41578 176.474 1.40221V0.205862C176.474 0.162893 176.44 0.126709 176.395 0.126709Z" fill="#6F7074"/>
<path d="M177.52 0.126709V0.300845H177.868V1.42256H178.078V0.300845H178.424V0.126709H177.52Z" fill="#6F7074"/>
<path d="M179.774 0.126709L179.322 1.14213L178.867 0.126709H178.639V1.42256H178.851V0.536044L179.247 1.42256H179.394L179.79 0.536044V1.42256H180V0.126709H179.774Z" fill="#6F7074"/>
</svg>
